<?xml version="1.0" encoding="UTF-8"?>
<svg id="Layer_2" xmlns="http://www.w3.org/2000/svg" xmlns:xlink="http://www.w3.org/1999/xlink" viewBox="0 0 245.33 184.82">
  <defs>
    <style>
      .cls-1, .cls-2, .cls-3, .cls-4 {
        fill: #8de6ea;
      }

      .cls-1, .cls-5, .cls-6 {
        opacity: .5;
      }

      .cls-2, .cls-7, .cls-8, .cls-3, .cls-9, .cls-10, .cls-11, .cls-12, .cls-13 {
        stroke: #6141bf;
        stroke-linecap: round;
        stroke-linejoin: round;
      }

      .cls-14 {
        filter: url(#drop-shadow-6);
      }

      .cls-7, .cls-8, .cls-5, .cls-15 {
        fill: #8249e7;
      }

      .cls-8 {
        filter: url(#drop-shadow-4);
      }

      .cls-3 {
        filter: url(#drop-shadow-2);
      }

      .cls-16 {
        filter: url(#drop-shadow-5);
      }

      .cls-17, .cls-4, .cls-15 {
        opacity: .2;
      }

      .cls-17, .cls-13, .cls-6 {
        fill: #f79beb;
      }

      .cls-9 {
        fill: none;
      }

      .cls-18 {
        filter: url(#drop-shadow-1);
      }

      .cls-10 {
        filter: url(#drop-shadow-3);
      }

      .cls-10, .cls-12 {
        fill: #fff;
      }

      .cls-11 {
        fill: #fbd6f6;
      }

      .cls-19 {
        fill: #6141bf;
      }
    </style>
    <filter id="drop-shadow-1" x="0" y="0" width="246.33" height="185.82" filterUnits="userSpaceOnUse">
      <feOffset dx="1" dy="1"/>
      <feGaussianBlur result="blur" stdDeviation="0"/>
      <feFlood flood-color="#6141bf" flood-opacity="1"/>
      <feComposite in2="blur" operator="in"/>
      <feComposite in="SourceGraphic"/>
    </filter>
    <filter id="drop-shadow-2" x="117.66" y="47.39" width="104.3" height="50.13" filterUnits="userSpaceOnUse">
      <feOffset dx=".5" dy=".5"/>
      <feGaussianBlur result="blur-2" stdDeviation="0"/>
      <feFlood flood-color="#6141bf" flood-opacity="1"/>
      <feComposite in2="blur-2" operator="in"/>
      <feComposite in="SourceGraphic"/>
    </filter>
    <filter id="drop-shadow-3" x="59.68" y="64.94" width="99.76" height="50.59" filterUnits="userSpaceOnUse">
      <feOffset dx=".5" dy=".5"/>
      <feGaussianBlur result="blur-3" stdDeviation="0"/>
      <feFlood flood-color="#6141bf" flood-opacity="1"/>
      <feComposite in2="blur-3" operator="in"/>
      <feComposite in="SourceGraphic"/>
    </filter>
    <filter id="drop-shadow-4" x="121.99" y="101.86" width="83.1" height="40.1" filterUnits="userSpaceOnUse">
      <feOffset dx=".5" dy=".5"/>
      <feGaussianBlur result="blur-4" stdDeviation="0"/>
      <feFlood flood-color="#6141bf" flood-opacity="1"/>
      <feComposite in2="blur-4" operator="in"/>
      <feComposite in="SourceGraphic"/>
    </filter>
    <filter id="drop-shadow-5" x="166.42" y="140.6" width="14.2" height="22.85" filterUnits="userSpaceOnUse">
      <feOffset dx=".5" dy=".5"/>
      <feGaussianBlur result="blur-5" stdDeviation="0"/>
      <feFlood flood-color="#6141bf" flood-opacity="1"/>
      <feComposite in2="blur-5" operator="in"/>
      <feComposite in="SourceGraphic"/>
    </filter>
    <filter id="drop-shadow-6" x="146.6" y="140.71" width="14.2" height="22.85" filterUnits="userSpaceOnUse">
      <feOffset dx=".5" dy=".5"/>
      <feGaussianBlur result="blur-6" stdDeviation="0"/>
      <feFlood flood-color="#6141bf" flood-opacity="1"/>
      <feComposite in2="blur-6" operator="in"/>
      <feComposite in="SourceGraphic"/>
    </filter>
  </defs>
  <g id="OBJECTS">
    <g class="cls-18">
      <g>
        <path class="cls-11" d="M244.81,6.44v171.96c0,3.24-2.65,5.92-5.89,5.92H6.4c-3.27,0-5.89-2.67-5.89-5.92V6.44C.5,3.17,3.13.5,6.4.5h232.53c3.24,0,5.89,2.67,5.89,5.94Z"/>
        <path class="cls-3" d="M210.52,75.64c-.37,0-.73.02-1.09.06-.83-7.92-7.53-14.1-15.67-14.1-2.13,0-4.17.43-6.02,1.2-2.68-8.64-10.73-14.91-20.25-14.91-8.78,0-16.31,5.33-19.53,12.94-2.12-1.07-4.51-1.68-7.05-1.68-8.7,0-15.76,7.06-15.76,15.76,0,1.83.33,3.58.9,5.21-4.38.17-7.88,3.77-7.88,8.19s3.67,8.21,8.21,8.21h84.15c5.77,0,10.44-4.67,10.44-10.44s-4.67-10.44-10.44-10.44Z"/>
        <path class="cls-10" d="M149.39,96.43c-.49,0-.97.05-1.44.13-1.12-7.54-7.61-13.33-15.46-13.33-.37,0-.73.03-1.1.06-2.92-10.29-12.37-17.84-23.59-17.84-12.78,0-23.26,9.76-24.43,22.24-.3-.02-.59-.05-.89-.05-6.75,0-12.32,4.98-13.28,11.46-.4-.06-.82-.11-1.24-.11-4.29,0-7.77,3.48-7.77,7.77s3.48,7.77,7.77,7.77h81.44c5,0,9.05-4.05,9.05-9.05s-4.05-9.05-9.05-9.05Z"/>
        <path class="cls-2" d="M244.81,6.43v7.85H.51v-7.85C.51,3.16,3.14.51,6.4.51h232.51c3.24,0,5.9,2.65,5.9,5.92Z"/>
        <g>
          <path class="cls-8" d="M195.8,124.39c-.29,0-.58.02-.87.05-.66-6.29-5.98-11.19-12.44-11.19-1.69,0-3.31.34-4.78.95-2.13-6.85-8.52-11.83-16.07-11.83-6.97,0-12.94,4.23-15.5,10.27-1.69-.85-3.58-1.33-5.6-1.33-6.91,0-12.51,5.6-12.51,12.51,0,1.45.26,2.84.72,4.14-3.48.14-6.26,2.99-6.26,6.5s2.92,6.51,6.51,6.51h66.8c4.58,0,8.29-3.71,8.29-8.29s-3.71-8.29-8.29-8.29Z"/>
          <g class="cls-16">
            <polygon class="cls-12" points="175.69 141.1 179.62 149.87 174.12 150.53 179.62 162.45 166.92 147.91 172.42 146.86 169.56 141.1 175.69 141.1"/>
          </g>
          <g class="cls-14">
            <polygon class="cls-12" points="155.87 141.21 159.8 149.98 154.3 150.64 159.8 162.56 147.1 148.02 152.6 146.97 149.74 141.21 155.87 141.21"/>
          </g>
        </g>
        <g>
          <path class="cls-13" d="M67.19,65.71l.57,2.19c.4,1.54,1.61,2.75,3.15,3.15l2.19.57-2.19.57c-1.54.4-2.75,1.61-3.15,3.15l-.57,2.19-.57-2.19c-.4-1.54-1.61-2.75-3.15-3.15l-2.19-.57,2.19-.57c1.54-.4,2.75-1.61,3.15-3.15l.57-2.19Z"/>
          <path class="cls-13" d="M205.94,111.04l.57,2.19c.4,1.54,1.61,2.75,3.15,3.15l2.19.57-2.19.57c-1.54.4-2.75,1.61-3.15,3.15l-.57,2.19-.57-2.19c-.4-1.54-1.61-2.75-3.15-3.15l-2.19-.57,2.19-.57c1.54-.4,2.75-1.61,3.15-3.15l.57-2.19Z"/>
          <path class="cls-7" d="M123.9,56.35l.29,1.1c.2.78.81,1.38,1.59,1.59l1.1.29-1.1.29c-.78.2-1.38.81-1.59,1.59l-.29,1.1-.29-1.1c-.2-.78-.81-1.38-1.59-1.59l-1.1-.29,1.1-.29c.78-.2,1.38-.81,1.59-1.59l.29-1.1Z"/>
          <path class="cls-7" d="M210.16,51.47l.29,1.1c.2.78.81,1.38,1.59,1.59l1.1.29-1.1.29c-.78.2-1.38.81-1.59,1.59l-.29,1.1-.29-1.1c-.2-.78-.81-1.38-1.59-1.59l-1.1-.29,1.1-.29c.78-.2,1.38-.81,1.59-1.59l.29-1.1Z"/>
          <path class="cls-7" d="M113.21,122.82l.29,1.1c.2.78.81,1.38,1.59,1.59l1.1.29-1.1.29c-.78.2-1.38.81-1.59,1.59l-.29,1.1-.29-1.1c-.2-.78-.81-1.38-1.59-1.59l-1.1-.29,1.1-.29c.78-.2,1.38-.81,1.59-1.59l.29-1.1Z"/>
          <path class="cls-7" d="M190.48,156.59l.29,1.1c.2.78.81,1.38,1.59,1.59l1.1.29-1.1.29c-.78.2-1.38.81-1.59,1.59l-.29,1.1-.29-1.1c-.2-.78-.81-1.38-1.59-1.59l-1.1-.29,1.1-.29c.78-.2,1.38-.81,1.59-1.59l.29-1.1Z"/>
          <path class="cls-13" d="M95.27,140.77l.57,2.19c.4,1.54,1.61,2.75,3.15,3.15l2.19.57-2.19.57c-1.54.4-2.75,1.61-3.15,3.15l-.57,2.19-.57-2.19c-.4-1.54-1.61-2.75-3.15-3.15l-2.19-.57,2.19-.57c1.54-.4,2.75-1.61,3.15-3.15l.57-2.19Z"/>
        </g>
      </g>
      <rect class="cls-7" x="35.59" y="17.87" width="196.76" height="10.65"/>
      <rect class="cls-7" x=".5" y="14.28" width="244.31" height="19.81"/>
      <path class="cls-13" d="M231.61,171.11v13.21H6.08c-3.09,0-5.57-2.67-5.57-5.92v-7.29h231.1Z"/>
      <g>
        <rect class="cls-2" x="232.22" y="3.76" width="8.15" height="8.15"/>
        <path class="cls-19" d="M236.89,9.73l-.53-.82-.59.82h-1.72l1.45-1.9-1.41-1.94h1.79l.55.81.58-.81h1.66l-1.41,1.87,1.45,1.97h-1.82Z"/>
      </g>
      <path class="cls-13" d="M231.61,34.08v150.24h7.32c3.24,0,5.89-2.67,5.89-5.92V34.08h-13.21Z"/>
      <rect class="cls-2" x="231.57" y="77.65" width="13.26" height="31" rx="2.37" ry="2.37"/>
      <path class="cls-2" d="M211.92,162.21h8.48c1.31,0,2.36,1.06,2.36,2.36v26.27c0,1.31-1.06,2.36-2.36,2.36h-8.48c-1.31,0-2.36-1.06-2.36-2.36v-26.27c0-1.31,1.06-2.36,2.36-2.36Z" transform="translate(393.87 -38.45) rotate(90)"/>
      <g>
        <g>
          <g>
            <rect class="cls-12" x=".5" y="34.04" width="21.39" height="21.39"/>
            <g>
              <rect class="cls-13" x="7.8" y="39.24" width="6.78" height="11.19" transform="translate(34.98 5.22) rotate(45)"/>
              <rect class="cls-11" x="6.56" y="42.24" width="6.78" height="7.67" transform="translate(35.5 6.46) rotate(45)"/>
            </g>
          </g>
          <g>
            <rect class="cls-12" x=".5" y="76.86" width="21.39" height="21.39"/>
            <line class="cls-12" x1="15.72" y1="92.56" x2="7.25" y2="84.09"/>
          </g>
          <g>
            <rect class="cls-12" x="21.94" y="98.24" width="21.39" height="21.39"/>
            <polygon class="cls-12" points="33.88 108.14 33.88 102.98 27.23 102.98 27.23 108.14 27.23 115.07 33.88 115.07 39.2 115.07 39.2 108.14 33.88 108.14"/>
          </g>
          <g>
            <rect class="cls-12" x="21.94" y="76.86" width="21.39" height="21.39"/>
            <path class="cls-12" d="M38.88,88.2c0,3.36-2.72,6.08-6.08,6.08s-6.08-2.72-6.08-6.08,2.72-6.08,6.08-6.08,6.08,2.72,6.08,6.08Z"/>
          </g>
          <g>
            <rect class="cls-12" x=".5" y="98.24" width="21.39" height="21.39"/>
            <rect class="cls-12" x="6.09" y="104.78" width="10.52" height="9.67"/>
          </g>
          <g>
            <rect class="cls-12" x=".5" y="55.45" width="21.39" height="21.39"/>
            <g>
              <rect class="cls-13" x="10.43" y="58.27" width="4.14" height="14.32" transform="translate(49.93 10.32) rotate(45)"/>
              <polygon class="cls-11" points="4.54 73.33 5.97 69.03 8.91 71.96 4.54 73.33"/>
            </g>
          </g>
          <g>
            <rect class="cls-12" x="21.88" y="34.05" width="21.39" height="21.39"/>
            <g>
              <path class="cls-19" d="M34.62,39.48c-2-2-5.28-2.02-7.3,0-2.02,2.02-2,5.3,0,7.3,1.71,1.71,4.32,1.97,6.3.79.03.04.05.1.09.14l3.42,3.42c.51.51,1.33.51,1.83,0,.51-.51.51-1.33,0-1.83l-3.42-3.42s-.09-.06-.14-.09c1.18-1.99.92-4.59-.79-6.3Z"/>
              <circle class="cls-11" cx="31.02" cy="43.19" r="4.12"/>
            </g>
          </g>
          <g>
            <rect class="cls-12" x="21.94" y="55.45" width="21.39" height="21.39"/>
            <g>
              <path class="cls-13" d="M26.67,60.58c-.45.45-.42,1.21-.01,1.86-.49.03-.95.16-1.29.5-.88.88-.68,2.5.44,3.62.11.11.24.17.35.26-.19.72.07,1.62.75,2.3.93.93,2.27,1.09,2.99.37.69-.69.55-1.92-.25-2.84.55-.91.33-2.27-.66-3.26-.03-.03-.08-.05-.11-.08.11-.05.23-.1.32-.19.55-.55.42-1.55-.27-2.25s-1.71-.82-2.25-.27Z"/>
              <rect class="cls-12" x="29.68" y="60.07" width="8.58" height="10.66" transform="translate(-36.3 43.18) rotate(-45)"/>
              <rect class="cls-13" x="29.68" y="63.81" width="8.58" height="3.19" transform="translate(-36.3 43.18) rotate(-45)"/>
            </g>
          </g>
        </g>
        <rect class="cls-11" x=".5" y="119.62" width="42.83" height="51.48"/>
        <g>
          <rect class="cls-2" x="4.15" y="154.49" width="9.1" height="10.3"/>
          <rect class="cls-13" x="17.37" y="154.49" width="9.1" height="10.3"/>
          <rect class="cls-7" x="30.58" y="154.49" width="9.1" height="10.3"/>
          <g>
            <rect class="cls-1" x="4.15" y="140.02" width="9.1" height="10.3"/>
            <rect class="cls-9" x="4.15" y="140.02" width="9.1" height="10.3"/>
          </g>
          <g>
            <rect class="cls-6" x="17.37" y="140.02" width="9.1" height="10.3"/>
            <rect class="cls-9" x="17.37" y="140.02" width="9.1" height="10.3"/>
          </g>
          <g>
            <rect class="cls-5" x="30.58" y="140.02" width="9.1" height="10.3"/>
            <rect class="cls-9" x="30.58" y="140.02" width="9.1" height="10.3"/>
          </g>
          <g>
            <rect class="cls-4" x="4.15" y="125.91" width="9.1" height="10.3"/>
            <rect class="cls-9" x="4.15" y="125.91" width="9.1" height="10.3"/>
          </g>
          <g>
            <rect class="cls-17" x="17.37" y="125.91" width="9.1" height="10.3"/>
            <rect class="cls-9" x="17.37" y="125.91" width="9.1" height="10.3"/>
          </g>
          <g>
            <rect class="cls-15" x="30.58" y="125.91" width="9.1" height="10.3"/>
            <rect class="cls-9" x="30.58" y="125.91" width="9.1" height="10.3"/>
          </g>
        </g>
      </g>
    </g>
  </g>
</svg>